{
  "accessors": [
    {
      "bufferView": 1,
      "componentType": 5126,
      "count": 65532,
      "max": [
        68.93445587158203,
        59.20875549316406,
        81.03707885742188
      ],
      "min": [
        -72.48507690429688,
        -57.96235275268555,
        -83.00300598144531
      ],
      "type": "VEC3"
    },
    {
      "bufferView": 1,
      "byteOffset": 786384,
      "componentType": 5126,
      "count": 65532,
      "max": [
        0.9998719096183777,
        0.999950647354126,
        0.9999585151672363
      ],
      "min": [
        -0.9999856352806091,
        -0.9999911785125732,
        -0.999958872795105
      ],
      "type": "VEC3"
    },
    {
      "bufferView": 0,
      "componentType": 5125,
      "count": 287673,
      "type": "SCALAR"
    },
    {
      "bufferView": 1,
      "byteOffset": 1572768,
      "componentType": 5126,
      "count": 65532,
      "max": [
        64.37870788574219,
        59.182228088378906,
        80.06604766845703
      ],
      "min": [
        -73.83982849121094,
        -56.54803466796875,
        -83.3379898071289
      ],
      "type": "VEC3"
    },
    {
      "bufferView": 1,
      "byteOffset": 2359152,
      "componentType": 5126,
      "count": 65532,
      "max": [
        0.9997719526290894,
        0.9999144077301025,
        0.9999886751174927
      ],
      "min": [
        -0.9999939203262329,
        -0.9999843239784241,
        -0.9999964833259583
      ],
      "type": "VEC3"
    },
    {
      "bufferView": 0,
      "byteOffset": 1150692,
      "componentType": 5125,
      "count": 304242,
      "type": "SCALAR"
    },
    {
      "bufferView": 1,
      "byteOffset": 3145536,
      "componentType": 5126,
      "count": 65532,
      "max": [
        73.78328704833984,
        53.89081573486328,
        76.40213012695313
      ],
      "min": [
        -72.41246032714844,
        -57.16065979003906,
        -81.87776947021484
      ],
      "type": "VEC3"
    },
    {
      "bufferView": 1,
      "byteOffset": 3931920,
      "componentType": 5126,
      "count": 65532,
      "max": [
        0.9999783039093018,
        0.9999985694885254,
        0.9999669790267944
      ],
      "min": [
        -0.9999654293060303,
        -0.9999808669090271,
        -0.9999335408210754
      ],
      "type": "VEC3"
    },
    {
      "bufferView": 0,
      "byteOffset": 2367660,
      "componentType": 5125,
      "count": 313860,
      "type": "SCALAR"
    },
    {
      "bufferView": 1,
      "byteOffset": 4718304,
      "componentType": 5126,
      "count": 65532,
      "max": [
        73.79678344726563,
        59.67945098876953,
        71.73779296875
      ],
      "min": [
        -73.73645782470703,
        -55.847530364990234,
        -82.5031967163086
      ],
      "type": "VEC3"
    },
    {
      "bufferView": 1,
      "byteOffset": 5504688,
      "componentType": 5126,
      "count": 65532,
      "max": [
        0.9999840259552002,
        0.9999904632568359,
        0.9993680715560913
      ],
      "min": [
        -0.9999802112579346,
        -0.999985933303833,
        -0.9998969435691833
      ],
      "type": "VEC3"
    },
    {
      "bufferView": 0,
      "byteOffset": 3623100,
      "componentType": 5125,
      "count": 311739,
      "type": "SCALAR"
    },
    {
      "bufferView": 1,
      "byteOffset": 6291072,
      "componentType": 5126,
      "count": 65532,
      "max": [
        73.05431365966797,
        59.20875549316406,
        82.22740936279297
      ],
      "min": [
        -71.79374694824219,
        -58.12876510620117,
        -80.96236419677734
      ],
      "type": "VEC3"
    },
    {
      "bufferView": 1,
      "byteOffset": 7077456,
      "componentType": 5126,
      "count": 65532,
      "max": [
        0.9999469518661499,
        0.999950647354126,
        0.9999886751174927
      ],
      "min": [
        -0.9999575018882751,
        -0.9999924898147583,
        -0.9999474883079529
      ],
      "type": "VEC3"
    },
    {
      "bufferView": 0,
      "byteOffset": 4870056,
      "componentType": 5125,
      "count": 312366,
      "type": "SCALAR"
    },
    {
      "bufferView": 1,
      "byteOffset": 7863840,
      "componentType": 5126,
      "count": 65532,
      "max": [
        72.50164031982422,
        59.720001220703125,
        80.64017486572266
      ],
      "min": [
        -73.83956909179688,
        -58.09043502807617,
        -83.02422332763672
      ],
      "type": "VEC3"
    },
    {
      "bufferView": 1,
      "byteOffset": 8650224,
      "componentType": 5126,
      "count": 65532,
      "max": [
        0.9996192455291748,
        0.9999919533729553,
        0.9999793767929077
      ],
      "min": [
        -0.9999865889549255,
        -0.9999720454216003,
        -0.9999213814735413
      ],
      "type": "VEC3"
    },
    {
      "bufferView": 0,
      "byteOffset": 6119520,
      "componentType": 5125,
      "count": 312999,
      "type": "SCALAR"
    },
    {
      "bufferView": 1,
      "byteOffset": 9436608,
      "componentType": 5126,
      "count": 65532,
      "max": [
        72.82892608642578,
        59.585227966308594,
        81.9609603881836
      ],
      "min": [
        -73.85391235351563,
        -58.1426887512207,
        -83.31163024902344
      ],
      "type": "VEC3"
    },
    {
      "bufferView": 1,
      "byteOffset": 10222992,
      "componentType": 5126,
      "count": 65532,
      "max": [
        0.9999061226844788,
        0.999824047088623,
        0.9999601244926453
      ],
      "min": [
        -0.9999939203262329,
        -0.9999998807907104,
        -0.9998988509178162
      ],
      "type": "VEC3"
    },
    {
      "bufferView": 0,
      "byteOffset": 7371516,
      "componentType": 5125,
      "count": 297591,
      "type": "SCALAR"
    },
    {
      "bufferView": 1,
      "byteOffset": 11009376,
      "componentType": 5126,
      "count": 65532,
      "max": [
        73.79297637939453,
        59.67060852050781,
        82.13107299804688
      ],
      "min": [
        -73.83982849121094,
        -58.1146354675293,
        -83.19080352783203
      ],
      "type": "VEC3"
    },
    {
      "bufferView": 1,
      "byteOffset": 11795760,
      "componentType": 5126,
      "count": 65532,
      "max": [
        0.9999885559082031,
        0.9999985694885254,
        0.9999642372131348
      ],
      "min": [
        -0.9999156594276428,
        -0.9999874234199524,
        -0.9998937845230103
      ],
      "type": "VEC3"
    },
    {
      "bufferView": 0,
      "byteOffset": 8561880,
      "componentType": 5125,
      "count": 235029,
      "type": "SCALAR"
    },
    {
      "bufferView": 1,
      "byteOffset": 12582144,
      "componentType": 5126,
      "count": 65532,
      "max": [
        73.34821319580078,
        59.57567596435547,
        82.11528778076172
      ],
      "min": [
        -73.68871307373047,
        -58.01810836791992,
        -83.31163024902344
      ],
      "type": "VEC3"
    },
    {
      "bufferView": 1,
      "byteOffset": 13368528,
      "componentType": 5126,
      "count": 65532,
      "max": [
        0.9999315142631531,
        0.9999904632568359,
        0.9999601244926453
      ],
      "min": [
        -0.9999856352806091,
        -0.999973475933075,
        -0.9999221563339233
      ],
      "type": "VEC3"
    },
    {
      "bufferView": 0,
      "byteOffset": 9501996,
      "componentType": 5125,
      "count": 209220,
      "type": "SCALAR"
    },
    {
      "bufferView": 1,
      "byteOffset": 14154912,
      "componentType": 5126,
      "count": 65532,
      "max": [
        57.00092315673828,
        53.587371826171875,
        55.543704986572266
      ],
      "min": [
        -49.67950439453125,
        -52.2867317199707,
        -79.31417846679688
      ],
      "type": "VEC3"
    },
    {
      "bufferView": 1,
      "byteOffset": 14941296,
      "componentType": 5126,
      "count": 65532,
      "max": [
        0.9999951720237732,
        0.9999335408210754,
        0.9999970197677612
      ],
      "min": [
        -0.9999565482139587,
        -0.9999921917915344,
        -0.9999221563339233
      ],
      "type": "VEC3"
    },
    {
      "bufferView": 0,
      "byteOffset": 10338876,
      "componentType": 5125,
      "count": 340188,
      "type": "SCALAR"
    },
    {
      "bufferView": 1,
      "byteOffset": 15727680,
      "componentType": 5126,
      "count": 25801,
      "max": [
        73.32453155517578,
        59.623291015625,
        80.4947280883789
      ],
      "min": [
        -73.71807861328125,
        -57.50824737548828,
        -82.91941833496094
      ],
      "type": "VEC3"
    },
    {
      "bufferView": 1,
      "byteOffset": 16037292,
      "componentType": 5126,
      "count": 25801,
      "max": [
        0.9999237656593323,
        0.9999549984931946,
        0.9999915957450867
      ],
      "min": [
        -0.9999565482139587,
        -0.9999342560768127,
        -0.9998824596405029
      ],
      "type": "VEC3"
    },
    {
      "bufferView": 0,
      "byteOffset": 11699628,
      "componentType": 5125,
      "count": 65058,
      "type": "SCALAR"
    }
  ],
  "asset": {
    "extras": {
      "author": "mjthehunter (https://sketchfab.com/mjthehunter)",
      "license": "CC-BY-4.0 (http://creativecommons.org/licenses/by/4.0/)",
      "source": "https://sketchfab.com/3d-models/dragon-age-qunari-82bd872b4941493dbdd054723e4eccbd",
      "title": "Dragon Age - Qunari"
    },
    "generator": "Sketchfab-12.67.0",
    "version": "2.0"
  },
  "bufferViews": [
    {
      "buffer": 0,
      "byteLength": 11959860,
      "name": "floatBufferViews",
      "target": 34963
    },
    {
      "buffer": 0,
      "byteLength": 16346904,
      "byteOffset": 11959860,
      "byteStride": 12,
      "name": "floatBufferViews",
      "target": 34962
    }
  ],
  "buffers": [
    {
      "byteLength": 28306764,
      "uri": "scene.bin"
    }
  ],
  "extensionsRequired": [
    "KHR_materials_pbrSpecularGlossiness"
  ],
  "extensionsUsed": [
    "KHR_materials_pbrSpecularGlossiness"
  ],
  "materials": [
    {
      "doubleSided": true,
      "extensions": {
        "KHR_materials_pbrSpecularGlossiness": {
          "diffuseFactor": [
            0.7325329855,
            0.6755991217,
            0.6076573056,
            1.0
          ],
          "glossinessFactor": 0.24,
          "specularFactor": [
            0.25,
            0.25,
            0.25
          ]
        }
      },
      "name": "material_0"
    }
  ],
  "meshes": [
    {
      "name": "Object_0",
      "primitives": [
        {
          "attributes": {
            "NORMAL": 1,
            "POSITION": 0
          },
          "indices": 2,
          "material": 0,
          "mode": 4
        }
      ]
    },
    {
      "name": "Object_1",
      "primitives": [
        {
          "attributes": {
            "NORMAL": 4,
            "POSITION": 3
          },
          "indices": 5,
          "material": 0,
          "mode": 4
        }
      ]
    },
    {
      "name": "Object_2",
      "primitives": [
        {
          "attributes": {
            "NORMAL": 7,
            "POSITION": 6
          },
          "indices": 8,
          "material": 0,
          "mode": 4
        }
      ]
    },
    {
      "name": "Object_3",
      "primitives": [
        {
          "attributes": {
            "NORMAL": 10,
            "POSITION": 9
          },
          "indices": 11,
          "material": 0,
          "mode": 4
        }
      ]
    },
    {
      "name": "Object_4",
      "primitives": [
        {
          "attributes": {
            "NORMAL": 13,
            "POSITION": 12
          },
          "indices": 14,
          "material": 0,
          "mode": 4
        }
      ]
    },
    {
      "name": "Object_5",
      "primitives": [
        {
          "attributes": {
            "NORMAL": 16,
            "POSITION": 15
          },
          "indices": 17,
          "material": 0,
          "mode": 4
        }
      ]
    },
    {
      "name": "Object_6",
      "primitives": [
        {
          "attributes": {
            "NORMAL": 19,
            "POSITION": 18
          },
          "indices": 20,
          "material": 0,
          "mode": 4
        }
      ]
    },
    {
      "name": "Object_7",
      "primitives": [
        {
          "attributes": {
            "NORMAL": 22,
            "POSITION": 21
          },
          "indices": 23,
          "material": 0,
          "mode": 4
        }
      ]
    },
    {
      "name": "Object_8",
      "primitives": [
        {
          "attributes": {
            "NORMAL": 25,
            "POSITION": 24
          },
          "indices": 26,
          "material": 0,
          "mode": 4
        }
      ]
    },
    {
      "name": "Object_9",
      "primitives": [
        {
          "attributes": {
            "NORMAL": 28,
            "POSITION": 27
          },
          "indices": 29,
          "material": 0,
          "mode": 4
        }
      ]
    },
    {
      "name": "Object_10",
      "primitives": [
        {
          "attributes": {
            "NORMAL": 31,
            "POSITION": 30
          },
          "indices": 32,
          "material": 0,
          "mode": 4
        }
      ]
    }
  ],
  "nodes": [
    {
      "children": [
        1
      ],
      "matrix": [
        1.0,
        0.0,
        0.0,
        0.0,
        0.0,
        2.220446049250313e-16,
        -1.0,
        0.0,
        0.0,
        1.0,
        2.220446049250313e-16,
        0.0,
        0.0,
        0.0,
        0.0,
        1.0
      ],
      "name": "Sketchfab_model"
    },
    {
      "children": [
        2,
        3,
        4,
        5,
        6,
        7,
        8,
        9,
        10,
        11,
        12
      ],
      "name": "qunari.OBJ.cleaner"
    },
    {
      "mesh": 0,
      "name": "Object_2"
    },
    {
      "mesh": 1,
      "name": "Object_3"
    },
    {
      "mesh": 2,
      "name": "Object_4"
    },
    {
      "mesh": 3,
      "name": "Object_5"
    },
    {
      "mesh": 4,
      "name": "Object_6"
    },
    {
      "mesh": 5,
      "name": "Object_7"
    },
    {
      "mesh": 6,
      "name": "Object_8"
    },
    {
      "mesh": 7,
      "name": "Object_9"
    },
    {
      "mesh": 8,
      "name": "Object_10"
    },
    {
      "mesh": 9,
      "name": "Object_11"
    },
    {
      "mesh": 10,
      "name": "Object_12"
    }
  ],
  "scene": 0,
  "scenes": [
    {
      "name": "Sketchfab_Scene",
      "nodes": [
        0
      ]
    }
  ]
}
