{
  "accessors": [
    {
      "bufferView": 2,
      "componentType": 5126,
      "count": 23701,
      "max": [
        1.0846748352050781,
        10.03543758392334,
        1.0846748352050781
      ],
      "min": [
        -1.0846748352050781,
        -0.03543755039572716,
        -1.0846748352050781
      ],
      "type": "VEC3"
    },
    {
      "bufferView": 2,
      "byteOffset": 284412,
      "componentType": 5126,
      "count": 23701,
      "max": [
        1.0,
        0.9989717602729797,
        1.0
      ],
      "min": [
        -1.0,
        -0.9989717602729797,
        -1.0
      ],
      "type": "VEC3"
    },
    {
      "bufferView": 1,
      "componentType": 5126,
      "count": 23701,
      "max": [
        3.500000476837158,
        1.0000001192092896
      ],
      "min": [
        0.0,
        0.0
      ],
      "type": "VEC2"
    },
    {
      "bufferView": 0,
      "componentType": 5125,
      "count": 124416,
      "type": "SCALAR"
    },
    {
      "bufferView": 2,
      "byteOffset": 568824,
      "componentType": 5126,
      "count": 27682,
      "max": [
        1.2500004768371582,
        197.45001220703125,
        10.000001907348633
      ],
      "min": [
        -1.2500004768371582,
        -1.3375004529953003,
        -10.00000286102295
      ],
      "type": "VEC3"
    },
    {
      "bufferView": 2,
      "byteOffset": 901008,
      "componentType": 5126,
      "count": 27682,
      "max": [
        1.0,
        1.0,
        1.0
      ],
      "min": [
        -1.0,
        -1.0,
        -1.0
      ],
      "type": "VEC3"
    },
    {
      "bufferView": 1,
      "byteOffset": 189608,
      "componentType": 5126,
      "count": 27682,
      "max": [
        0.8750002384185791,
        1.000000238418579
      ],
      "min": [
        0.1250000298023224,
        0.0
      ],
      "type": "VEC2"
    },
    {
      "bufferView": 0,
      "byteOffset": 497664,
      "componentType": 5125,
      "count": 115200,
      "type": "SCALAR"
    }
  ],
  "asset": {
    "extras": {
      "author": "ABSoln (https://sketchfab.com/ABSoln)",
      "license": "CC-BY-NC-4.0 (http://creativecommons.org/licenses/by-nc/4.0/)",
      "source": "https://sketchfab.com/3d-models/dna-6d7adbbe634441e7b0bbda26848e4e67",
      "title": "DNA"
    },
    "generator": "Sketchfab-12.66.0",
    "version": "2.0"
  },
  "bufferViews": [
    {
      "buffer": 0,
      "byteLength": 958464,
      "name": "floatBufferViews",
      "target": 34963
    },
    {
      "buffer": 0,
      "byteLength": 411064,
      "byteOffset": 958464,
      "byteStride": 8,
      "name": "floatBufferViews",
      "target": 34962
    },
    {
      "buffer": 0,
      "byteLength": 1233192,
      "byteOffset": 1369528,
      "byteStride": 12,
      "name": "floatBufferViews",
      "target": 34962
    }
  ],
  "buffers": [
    {
      "byteLength": 2602720,
      "uri": "scene.bin"
    }
  ],
  "materials": [
    {
      "doubleSided": true,
      "name": "Material.001",
      "pbrMetallicRoughness": {
        "baseColorFactor": [
          0.8,
          0.451965,
          0.1475,
          1.0
        ],
        "roughnessFactor": 0.0
      }
    },
    {
      "doubleSided": true,
      "name": "Material.002",
      "pbrMetallicRoughness": {
        "baseColorFactor": [
          0.8,
          0.8,
          0.8,
          1.0
        ],
        "roughnessFactor": 0.0
      }
    }
  ],
  "meshes": [
    {
      "name": "Object_0",
      "primitives": [
        {
          "attributes": {
            "NORMAL": 1,
            "POSITION": 0,
            "TEXCOORD_0": 2
          },
          "indices": 3,
          "material": 0,
          "mode": 4
        }
      ]
    },
    {
      "name": "Object_1",
      "primitives": [
        {
          "attributes": {
            "NORMAL": 5,
            "POSITION": 4,
            "TEXCOORD_0": 6
          },
          "indices": 7,
          "material": 1,
          "mode": 4
        }
      ]
    }
  ],
  "nodes": [
    {
      "children": [
        1
      ],
      "matrix": [
        0.3511365056037903,
        0.7738015651702882,
        -0.5271947979927061,
        0.0,
        -0.8322882652282715,
        1.23088895601084e-16,
        -0.5543431043624878,
        0.0,
        -0.42895153164863586,
        0.6334280967712401,
        0.6440259218215943,
        0.0,
        -0.0033720042556524277,
        -0.002883032895624639,
        0.0050642918795347205,
        1.0
      ],
      "name": "Sketchfab_model"
    },
    {
      "children": [
        2
      ],
      "name": "root"
    },
    {
      "children": [
        3,
        5
      ],
      "matrix": [
        1.0,
        0.0,
        0.0,
        0.0,
        0.0,
        2.220446049250313e-16,
        1.0,
        0.0,
        0.0,
        -1.0,
        2.220446049250313e-16,
        0.0,
        0.0,
        0.0,
        0.0,
        1.0
      ],
      "name": "GLTF_SceneRootNode"
    },
    {
      "children": [
        4
      ],
      "matrix": [
        0.5,
        0.0,
        0.0,
        0.0,
        0.0,
        0.5,
        0.0,
        0.0,
        0.0,
        0.0,
        0.5,
        0.0,
        0.0,
        -2.5,
        0.0,
        1.0
      ],
      "name": "Plane_2"
    },
    {
      "mesh": 0,
      "name": "Object_4"
    },
    {
      "children": [
        6
      ],
      "matrix": [
        0.4000000059604645,
        0.0,
        0.0,
        0.0,
        0.0,
        0.025000005960464478,
        0.0,
        0.0,
        0.0,
        0.0,
        0.050000011920928955,
        0.0,
        0.0,
        -2.5,
        0.0,
        1.0
      ],
      "name": "Cube_3"
    },
    {
      "mesh": 1,
      "name": "Object_6"
    }
  ],
  "scene": 0,
  "scenes": [
    {
      "name": "Sketchfab_Scene",
      "nodes": [
        0
      ]
    }
  ]
}
